<?xml version="1.0"?>
<svg width="128" height="128" xmlns="http://www.w3.org/2000/svg" xmlns:svg="http://www.w3.org/2000/svg" enable-background="new 0 0 128 128" version="1.1" xml:space="preserve">
 <style type="text/css">.st0{display:none;}
	.st1{display:inline;}
	.st2{fill:#fffff;}</style>
 <g class="layer">
  <title>Layer 1</title>
  <g id="row2_1_" transform="rotate(-180 64 64)">
   <g class="st0" id="_x36__3_" transform="rotate(-90 64 64)">
    <g class="st1" id="transparent">
     <g id="svg_1">
      <path class="st2" d="m64,0.3c-35.3,0 -64,28.5 -64,63.7c0,35.2 28.7,63.7 64,63.7c35.3,0 64,-28.5 64,-63.7c0,-35.2 -28.7,-63.7 -64,-63.7zm0,121c-31.8,0 -57.6,-25.6 -57.6,-57.3c0,-31.7 25.8,-57.3 57.6,-57.3c12.1,0 23.4,3.7 32.7,10.1c13.7,9.4 23.1,24.5 24.7,41.8c0,0.5 0.1,9.8 0,10.7c-2.7,29.2 -27.4,52 -57.4,52zm-3.2,-89.1c-14.5,0 -19.1,13.3 -19.2,25.5l9.6,0c-0.2,-8.8 0.7,-15.9 9.6,-15.9c6.4,0 9.6,2.7 9.6,9.6c0,4.4 -3.4,6.6 -6.4,9.6c-6.2,6 -5.7,10.4 -6,18.7l8.4,0c0.3,-7.5 0.2,-7.3 6.4,-13.9c4.2,-4.1 7.1,-8.2 7.1,-14.5c0.1,-10.1 -5.3,-19.1 -19.1,-19.1zm3.3,54.1c-3.6,0 -6.4,2.9 -6.4,6.4c0,3.5 2.9,6.4 6.4,6.4c3.6,0 6.4,-2.9 6.4,-6.4c0,-3.6 -2.9,-6.4 -6.4,-6.4z" fill="#ffffff" id="svg_2"/>
     </g>
    </g>
   </g>
   <g class="st0" id="_x35__3_" transform="rotate(-90 64 64)">
    <g class="st1" id="down_1_">
     <g id="svg_3">
      <path class="st2" d="m64,0.3c-35.3,0 -64,28.5 -64,63.7s28.7,63.7 64,63.7c35.3,0 64,-28.5 64,-63.7s-28.7,-63.7 -64,-63.7zm0,121c-31.8,0 -57.6,-25.6 -57.6,-57.3c0,-31.7 25.8,-57.3 57.6,-57.3c31.8,0 57.6,25.7 57.6,57.3c0,31.7 -25.8,57.3 -57.6,57.3zm21.7,-63.2l-15.3,12.2l0,-28.6c0,-2.2 -2.3,-3.2 -4.4,-3.2l-4,0c-2.2,0 -3.9,1.8 -3.9,3.9l0,28.4l-15.8,-12.7c-2.2,0 -3.9,1.8 -3.9,3.9l0,7.1l25.6,26.7l25.6,-26.7l0,-7.1c0,-2.2 -1.8,-3.9 -3.9,-3.9z" fill="#ffffff" id="svg_4"/>
     </g>
    </g>
   </g>
   <g id="_x34__3_">
    <g id="up" transform="rotate(-90 64 64)">
     <g id="svg_5">
      <path class="st2" d="m64,0.3c-35.3,0 -64,28.5 -64,63.7s28.7,63.7 64,63.7c35.3,0 64,-28.5 64,-63.7s-28.7,-63.7 -64,-63.7zm0,121c-31.8,0 -57.6,-25.6 -57.6,-57.3c0,-31.7 25.8,-57.3 57.6,-57.3c31.8,0 57.6,25.7 57.6,57.3c0,31.7 -25.8,57.3 -57.6,57.3zm-25.6,-62.4l0,7.1c0,2.2 1.8,3.9 3.9,3.9l15.3,-12.2l0,28.7c0,2.2 2.3,3.2 4.4,3.2l4,0c2.2,0 3.9,-1.8 3.9,-3.9l0,-28.5l15.8,12.7c2.2,0 3.9,-1.8 3.9,-3.9l0,-7.1l-25.6,-26.7l-25.6,26.7z" fill="#ffffff" id="svg_6"/>
     </g>
    </g>
   </g>
   <g class="st0" id="_x33__3_" transform="rotate(-90 64 64)">
    <g class="st1" id="right_1_">
     <g id="svg_7">
      <path class="st2" d="m64,0.3c-35.2,0 -63.7,28.5 -63.7,63.7c0,35.2 28.5,63.7 63.7,63.7c35.2,0 63.7,-28.5 63.7,-63.7c0,-35.2 -28.5,-63.7 -63.7,-63.7zm0,121c-31.7,0 -57.3,-25.6 -57.3,-57.3c0,-31.7 25.6,-57.3 57.3,-57.3c31.7,0 57.3,25.7 57.3,57.3c0,31.7 -25.6,57.3 -57.3,57.3zm-2,-82.8c-2.2,0 -3.9,1.8 -3.9,3.9l12.2,15.2l-28.6,0c-2.2,0 -3.2,2.2 -3.2,4.4l0,4c0,2.2 1.8,3.9 3.9,3.9l28.4,0l-12.7,15.7c0,2.2 1.8,3.9 3.9,3.9l7.1,0l26.7,-25.5l-26.7,-25.5l-7.1,0z" fill="#ffffff" id="svg_8"/>
     </g>
    </g>
   </g>
   <g class="st0" id="_x32__4_" transform="rotate(-90 64 64)">
    <g class="st1" id="left_1_">
     <g id="svg_9">
      <path class="st2" d="m64,0.3c-35.3,0 -64,28.5 -64,63.7c0,35.2 28.7,63.7 64,63.7c35.3,0 64,-28.5 64,-63.7c0,-35.2 -28.7,-63.7 -64,-63.7zm0,121c-31.8,0 -57.6,-25.6 -57.6,-57.3c0,-31.7 25.8,-57.3 57.6,-57.3c31.8,0 57.6,25.7 57.6,57.3c0,31.7 -25.8,57.3 -57.6,57.3zm22.4,-63.7l-28.8,0l12.3,-15.2c0,-2.2 -1.8,-3.9 -3.9,-3.9l-7.1,0l-26.9,25.5l26.8,25.5l7.2,0c2.2,0 3.9,-1.8 3.9,-3.9l-12.8,-15.7l28.6,0c2.2,0 3.9,-1.8 3.9,-3.9l0,-4c0,-2.1 -1,-4.4 -3.2,-4.4z" fill="#ffffff" id="svg_10"/>
     </g>
    </g>
   </g>
   <g class="st0" id="_x31__4_" transform="rotate(-90 64 64)">
    <g class="st1" id="left_3_">
     <g id="svg_11">
      <path class="st2" d="m64,0.3c-35.3,0 -64,28.5 -64,63.7c0,35.2 28.7,63.7 64,63.7c35.3,0 64,-28.5 64,-63.7c0,-35.2 -28.7,-63.7 -64,-63.7zm0,121c-31.8,0 -57.6,-25.6 -57.6,-57.3c0,-31.7 25.8,-57.3 57.6,-57.3c31.8,0 57.6,25.7 57.6,57.3c0,31.7 -25.8,57.3 -57.6,57.3zm1.3,-82.8l-23.7,25.5l23.6,25.5l13.5,0l-24.3,-25.5l24.4,-25.5l-13.5,0z" fill="#ffffff" id="svg_12"/>
     </g>
    </g>
   </g>
  </g>
  <g class="st0" id="row1_1_">
   <g class="st1" id="_x36__2_">
    <g id="plus_transparent">
     <g id="svg_13">
      <path class="st2" d="m64,0.3c-35.3,0 -64,28.5 -64,63.7c0,35.2 28.7,63.7 64,63.7c35.3,0 64,-28.5 64,-63.7c0,-35.2 -28.7,-63.7 -64,-63.7zm0,121c-31.8,0 -57.6,-25.6 -57.6,-57.3c0,-31.7 25.8,-57.3 57.6,-57.3c31.8,0 57.6,25.7 57.6,57.3c0,31.7 -25.8,57.3 -57.6,57.3zm20.8,-60.5l-14.4,0l0,-14.3c0,-2.6 -2.2,-4.8 -4.8,-4.8c-2.7,0 -4.8,2.1 -4.8,4.8l0,14.3l-14.4,0c-2.7,0 -4.8,2.1 -4.8,4.8c0,2.6 2.1,4.8 4.8,4.8l14.4,0l0,14.3c0,2.6 2.1,4.8 4.8,4.8c2.6,0 4.8,-2.1 4.8,-4.8l0,-14.3l14.4,0c2.6,0 4.8,-2.1 4.8,-4.8c0,-2.6 -2.1,-4.8 -4.8,-4.8z" id="svg_14"/>
     </g>
    </g>
   </g>
   <g class="st1" id="_x35__2_">
    <g id="error_transparent_copy">
     <g id="svg_15">
      <path class="st2" d="m64,0.3c-35.3,0 -64,28.5 -64,63.7c0,35.2 28.7,63.7 64,63.7c35.3,0 64,-28.5 64,-63.7c0,-35.2 -28.7,-63.7 -64,-63.7zm0,121c-31.8,0 -57.6,-25.6 -57.6,-57.3c0,-31.7 25.8,-57.3 57.6,-57.3c31.8,0 57.6,25.7 57.6,57.3c0,31.7 -25.8,57.3 -57.6,57.3zm23.2,-76.8c-0.9,-0.9 -2.3,-0.9 -3.2,0l-28.8,28.7l-13.8,-13.7c-0.9,-0.9 -2.3,-0.9 -3.2,0l-4.8,4.8c-0.9,0.9 -0.9,2.3 0,3.2l15.3,15.3c0,0 0,0 0,0l3.3,3.3l0.8,0.8l0,0l0.7,0.7c0.9,0.9 2.3,0.9 3.2,0l35.3,-35.1c0.9,-0.9 0.9,-2.3 0,-3.2l-4.8,-4.8z" id="svg_16"/>
     </g>
    </g>
   </g>
   <g class="st1" id="_x34__2_">
    <g id="error_transparent">
     <g id="svg_17">
      <path class="st2" d="m64,0.3c-35.3,0 -64,28.5 -64,63.7c0,35.2 28.7,63.7 64,63.7c35.3,0 64,-28.5 64,-63.7c0,-35.2 -28.7,-63.7 -64,-63.7zm0,121c-31.8,0 -57.6,-25.6 -57.6,-57.3c0,-31.7 25.8,-57.3 57.6,-57.3c31.8,0 57.6,25.7 57.6,57.3c0,31.7 -25.8,57.3 -57.6,57.3zm21.9,-73.2l-4.9,-4.8c-0.9,-0.9 -2.3,-0.9 -3.2,0l-13.8,13.7l-13.8,-13.7c-0.9,-0.9 -2.3,-0.9 -3.2,0l-4.9,4.8c-0.9,0.9 -0.9,2.3 0,3.2l13.8,13.7l-13.8,13.8c-0.9,0.9 -0.9,2.3 0,3.2l4.9,4.8c0.9,0.9 2.3,0.9 3.2,0l13.8,-13.7l13.8,13.7c0.9,0.9 2.3,0.9 3.2,0l4.9,-4.8c0.9,-0.9 0.9,-2.3 0,-3.2l-13.8,-13.8l13.8,-13.7c0.9,-0.9 0.9,-2.3 0,-3.2z" id="svg_18"/>
     </g>
    </g>
   </g>
   <g class="st1" id="_x33__2_">
    <g id="alert_transparent">
     <g id="svg_19">
      <path class="st2" d="m64,32.2c-4.4,0 -8,3.3 -8,7.3l0,24.8c0,4.1 3.6,7.3 8,7.3s8,-3.3 8,-7.3l0,-24.8c0,-4.1 -3.6,-7.3 -8,-7.3zm0,-31.9c-35.3,0 -64,28.5 -64,63.7c0,35.2 28.7,63.7 64,63.7c35.3,0 64,-28.5 64,-63.7c0,-35.2 -28.7,-63.7 -64,-63.7zm0,121c-31.8,0 -57.6,-25.6 -57.6,-57.3c0,-31.7 25.8,-57.3 57.6,-57.3c31.8,0 57.6,25.7 57.6,57.3c0,31.7 -25.8,57.3 -57.6,57.3zm0,-40.1c-4.4,0 -8,3.3 -8,7.3s3.6,7.3 8,7.3s8,-3.3 8,-7.3s-3.6,-7.3 -8,-7.3z" id="svg_20"/>
     </g>
    </g>
   </g>
   <g class="st1" id="_x32__3_">
    <g id="minus_transparent">
     <g id="svg_21">
      <path class="st2" d="m64,0.3c-35.3,0 -64,28.5 -64,63.7c0,35.2 28.7,63.7 64,63.7c35.3,0 64,-28.5 64,-63.7c0,-35.2 -28.7,-63.7 -64,-63.7zm0,121c-31.8,0 -57.6,-25.6 -57.6,-57.3c0,-31.7 25.8,-57.3 57.6,-57.3c31.8,0 57.6,25.7 57.6,57.3c0,31.7 -25.8,57.3 -57.6,57.3zm17.6,-60.5l-38.4,0c-2.7,0 -4.8,2.1 -4.8,4.8c0,2.6 2.2,4.8 4.8,4.8l38.4,0c2.6,0 4.8,-2.1 4.8,-4.8c0,-2.6 -2.1,-4.8 -4.8,-4.8z" id="svg_22"/>
     </g>
    </g>
   </g>
   <g class="st1" id="_x31__3_">
    <g id="_x32__2_">
     <g id="svg_23">
      <path class="st2" d="m64,0c-35.3,0 -64,28.7 -64,64s28.7,64 64,64c35.3,0 64,-28.7 64,-64s-28.7,-64 -64,-64zm0,121.6c-31.8,0 -57.6,-25.8 -57.6,-57.6s25.8,-57.6 57.6,-57.6c31.8,0 57.6,25.8 57.6,57.6s-25.8,57.6 -57.6,57.6zm-14.8,-83.2l24.4,25.6l-24.4,25.6l13.5,0l23.7,-25.6l-23.7,-25.6l-13.5,0z" id="svg_24"/>
     </g>
    </g>
   </g>
  </g>
 </g>
</svg>